g Cylinder001
v 13.80351 78.28363 0
v -13.80352 78.28363 9.173126
v -13.80352 78.28363 0
v 13.80351 78.28363 9.173126
v -13.80352 78.28363 18.34625
v 39.74564 68.84147 0
v 13.80351 78.28363 18.34625
v 39.74564 68.84147 9.173126
v 60.89385 51.09601 0
v 39.74564 68.84147 18.34625
v 60.89385 51.09601 9.173126
v 74.69736 27.18762 0
v 60.89385 51.09601 18.34625
v 74.69736 27.18762 9.173126
v 79.49128 0 0
v 74.69736 27.18762 18.34625
v 79.49128 0 9.173126
v 74.69735 -27.18767 0
v 79.49128 0 18.34625
v 74.69735 -27.18767 9.173126
v 60.89382 -51.09605 0
v 74.69735 -27.18767 18.34625
v 60.89382 -51.09605 9.173126
v 39.7456 -68.84149 0
v 60.89382 -51.09605 18.34625
v 39.7456 -68.84149 9.173126
v 13.80348 -78.28364 0
v 39.7456 -68.84149 18.34625
v 13.80348 -78.28364 9.173126
v -13.80355 -78.28362 0
v 13.80348 -78.28364 18.34625
v -13.80355 -78.28362 9.173126
v -39.74566 -68.84145 0
v -13.80355 -78.28362 18.34625
v -39.74566 -68.84145 9.173126
v -60.89387 -51.09599 0
v -39.74566 -68.84145 18.34625
v -60.89387 -51.09599 9.173126
v -74.69737 -27.1876 0
v -60.89387 -51.09599 18.34625
v -74.69737 -27.1876 9.173126
v -79.49128 1.200285E-05 0
v -74.69737 -27.1876 18.34625
v -79.49128 1.200285E-05 9.173126
v -74.69736 27.18762 0
v -79.49128 1.200285E-05 18.34625
v -74.69736 27.18762 9.173126
v -60.89385 51.09601 0
v -74.69736 27.18762 18.34625
v -60.89385 51.09601 9.173126
v -39.74564 68.84147 0
v -60.89385 51.09601 18.34625
v -39.74564 68.84147 9.173126
v -13.80352 78.28363 0
v -39.74564 68.84147 18.34625
v -13.80352 78.28363 9.173126
v -13.80352 78.28363 18.34625
v -12.19792 69.1778 8.369711
v 12.1979 69.1778 -2.384186E-07
v -12.19792 69.1778 -2.384186E-07
v 12.19791 69.1778 8.369711
v 35.12248 60.83393 -2.384186E-07
v 12.1979 69.1778 18.34625
v -12.19792 69.1778 18.34625
v 35.12248 60.83393 18.34625
v 35.12248 60.83393 8.369711
v 53.81077 45.1526 -2.384186E-07
v 53.81077 45.1526 18.34625
v 53.81077 45.1526 8.369711
v 66.00868 24.0252 -2.384186E-07
v 66.00868 24.0252 18.34625
v 66.00867 24.0252 8.369711
v 70.24498 4.768372E-07 0
v 70.24497 6.242122E-14 8.369711
v 66.00867 -24.02524 8.369711
v 70.24498 4.768372E-07 18.34625
v 66.00867 -24.02524 -2.384186E-07
v 66.00867 -24.02524 18.34625
v 53.81074 -45.15263 -2.384186E-07
v 53.81074 -45.15263 18.34625
v 53.81074 -45.15263 8.369711
v 35.12245 -60.83395 -2.384186E-07
v 35.12245 -60.83395 18.34625
v 35.12245 -60.83395 8.369711
v 12.19788 -69.1778 -2.384186E-07
v 12.19788 -69.1778 18.34625
v 12.19788 -69.1778 8.369711
v -12.19794 -69.17779 -2.384186E-07
v -12.19794 -69.17778 18.34625
v -12.19794 -69.17779 8.369711
v -35.12251 -60.83392 -2.384186E-07
v -35.12251 -60.83392 18.34625
v -35.12251 -60.83392 8.369711
v -53.81078 -45.15259 -2.384186E-07
v -53.81079 -45.15258 18.34625
v -53.81078 -45.15258 8.369711
v -66.00868 -24.02518 -2.384186E-07
v -66.00868 -24.02518 18.34625
v -66.00868 -24.02518 8.369711
v -70.24498 1.007172E-05 -2.384186E-07
v -70.24498 1.007172E-05 18.34625
v -70.24497 1.06067E-05 8.369711
v -66.00867 24.0252 -2.384186E-07
v -66.00867 24.0252 18.34625
v -66.00867 24.0252 8.369711
v -53.81077 45.1526 -2.384186E-07
v -53.81076 45.1526 18.34625
v -53.81077 45.1526 8.369711
v -35.12249 60.83393 -2.384186E-07
v -35.12249 60.83393 18.34625
v -35.12249 60.83393 8.369711
v -12.19792 69.1778 -2.384186E-07
v -12.19792 69.1778 18.34625
v -12.19792 69.1778 8.369711
v 53.81074 -45.15263 -2.384186E-07
v 74.69735 -27.18767 0
v 66.00867 -24.02524 -2.384186E-07
v 70.24498 4.768372E-07 0
v 60.89382 -51.09605 0
v 79.49128 0 0
v 35.12245 -60.83395 -2.384186E-07
v 74.69736 27.18762 0
v 39.7456 -68.84149 0
v 66.00868 24.0252 -2.384186E-07
v 12.19788 -69.1778 -2.384186E-07
v 60.89385 51.09601 0
v 13.80348 -78.28364 0
v 53.81077 45.1526 -2.384186E-07
v -12.19794 -69.17779 -2.384186E-07
v 39.74564 68.84147 0
v -13.80355 -78.28362 0
v 35.12248 60.83393 -2.384186E-07
v -35.12251 -60.83392 -2.384186E-07
v 13.80351 78.28363 0
v -39.74566 -68.84145 0
v 12.1979 69.1778 -2.384186E-07
v -53.81078 -45.15259 -2.384186E-07
v -13.80352 78.28363 0
v -60.89387 -51.09599 0
v -12.19792 69.1778 -2.384186E-07
v -66.00868 -24.02518 -2.384186E-07
v -39.74564 68.84147 0
v -74.69737 -27.1876 0
v -35.12249 60.83393 -2.384186E-07
v -70.24498 1.007172E-05 -2.384186E-07
v -60.89385 51.09601 0
v -79.49128 1.200285E-05 0
v -53.81077 45.1526 -2.384186E-07
v -66.00867 24.0252 -2.384186E-07
v -74.69736 27.18762 0
v 70.24498 4.768372E-07 18.34625
v 74.69735 -27.18767 18.34625
v 66.00867 -24.02524 18.34625
v 53.81074 -45.15263 18.34625
v 79.49128 0 18.34625
v 60.89382 -51.09605 18.34625
v 74.69736 27.18762 18.34625
v 35.12245 -60.83395 18.34625
v 66.00868 24.0252 18.34625
v 39.7456 -68.84149 18.34625
v 60.89385 51.09601 18.34625
v 12.19788 -69.1778 18.34625
v 53.81077 45.1526 18.34625
v 13.80348 -78.28364 18.34625
v 39.74564 68.84147 18.34625
v -12.19794 -69.17778 18.34625
v 35.12248 60.83393 18.34625
v -13.80355 -78.28362 18.34625
v 13.80351 78.28363 18.34625
v -35.12251 -60.83392 18.34625
v 12.1979 69.1778 18.34625
v -39.74566 -68.84145 18.34625
v -13.80352 78.28363 18.34625
v -53.81079 -45.15258 18.34625
v -12.19792 69.1778 18.34625
v -60.89387 -51.09599 18.34625
v -39.74564 68.84147 18.34625
v -66.00868 -24.02518 18.34625
v -35.12249 60.83393 18.34625
v -74.69737 -27.1876 18.34625
v -60.89385 51.09601 18.34625
v -70.24498 1.007172E-05 18.34625
v -53.81076 45.1526 18.34625
v -79.49128 1.200285E-05 18.34625
v -74.69736 27.18762 18.34625
v -66.00867 24.0252 18.34625
vt 0.972168 0
vt 1.027344 0.5
vt 1.027344 0
vt 0.972168 0.5
vt 1.027344 1
vt 0.9165039 0
vt 0.972168 1
vt 0.9165039 0.5
vt 0.8613281 0
vt 0.9165039 1
vt 0.8613281 0.5
vt 0.8056641 0
vt 0.8613281 1
vt 0.8056641 0.5
vt 0.75 0
vt 0.8056641 1
vt 0.75 0.5
vt 0.6943359 0
vt 0.75 1
vt 0.6943359 0.5
vt 0.6386719 0
vt 0.6943359 1
vt 0.6386719 0.5
vt 0.5834961 0
vt 0.6386719 1
vt 0.5834961 0.5
vt 0.527832 0
vt 0.5834961 1
vt 0.527832 0.5
vt 0.472168 0
vt 0.527832 1
vt 0.472168 0.5
vt 0.416748 0
vt 0.472168 1
vt 0.416748 0.5
vt 0.361084 0
vt 0.416748 1
vt 0.361084 0.5
vt 0.3056641 0
vt 0.361084 1
vt 0.3056641 0.5
vt 0.25 0
vt 0.3056641 1
vt 0.25 0.5
vt 0.194458 0
vt 0.25 1
vt 0.194458 0.5
vt 0.138916 0
vt 0.194458 1
vt 0.138916 0.5
vt 0.08331299 0
vt 0.138916 1
vt 0.08331299 0.5
vt 0.027771 0
vt 0.08331299 1
vt 0.027771 0.5
vt 0.027771 1
vt 1.027344 0.5
vt 0.972168 0.3786621
vt 1.027344 0.3786621
vt 0.972168 0.5
vt 0.9165039 0.3786621
vt 0.972168 0.6445313
vt 1.027344 0.6445313
vt 0.9165039 0.6445313
vt 0.9165039 0.5
vt 0.8613281 0.3786621
vt 0.8613281 0.6445313
vt 0.8613281 0.5
vt 0.8056641 0.3786621
vt 0.8056641 0.6445313
vt 0.8056641 0.5
vt 0.75 0.3786621
vt 0.75 0.5
vt 0.6943359 0.5
vt 0.75 0.6445313
vt 0.6943359 0.3786621
vt 0.6943359 0.6445313
vt 0.6386719 0.3786621
vt 0.6386719 0.6445313
vt 0.6386719 0.5
vt 0.5834961 0.3786621
vt 0.5834961 0.6445313
vt 0.5834961 0.5
vt 0.527832 0.3786621
vt 0.527832 0.6445313
vt 0.527832 0.5
vt 0.472168 0.3786621
vt 0.472168 0.6445313
vt 0.472168 0.5
vt 0.416748 0.3786621
vt 0.416748 0.6445313
vt 0.416748 0.5
vt 0.361084 0.3786621
vt 0.361084 0.6445313
vt 0.361084 0.5
vt 0.3056641 0.3786621
vt 0.3056641 0.6445313
vt 0.3056641 0.5
vt 0.25 0.3786621
vt 0.25 0.6445313
vt 0.25 0.5
vt 0.194458 0.3786621
vt 0.194458 0.6445313
vt 0.194458 0.5
vt 0.138916 0.3786621
vt 0.138916 0.6445313
vt 0.138916 0.5
vt 0.08331299 0.3786621
vt 0.08331299 0.6445313
vt 0.08331299 0.5
vt 0.027771 0.3786621
vt 0.027771 0.6445313
vt 0.027771 0.5
vt 0.7841797 0.8383789
vt 0.6708984 0.9697266
vt 0.6508789 0.9150391
vt 0.5 0.9418945
vt 0.8212891 0.8828125
vt 0.5 1
vt 0.8828125 0.7207031
vt 0.3291016 0.9697266
vt 0.9331055 0.75
vt 0.348877 0.9150391
vt 0.9350586 0.5766602
vt 0.1785889 0.8828125
vt 0.9921875 0.5869141
vt 0.2159424 0.8383789
vt 0.9350586 0.4233398
vt 0.0670166 0.75
vt 0.9921875 0.4130859
vt 0.1173706 0.7207031
vt 0.8828125 0.2790527
vt 0.007595062 0.5869141
vt 0.9331055 0.25
vt 0.06488037 0.5766602
vt 0.7841797 0.161499
vt 0.007595062 0.4130859
vt 0.8212891 0.1170044
vt 0.06488037 0.4233398
vt 0.6508789 0.08477783
vt 0.0670166 0.25
vt 0.6708984 0.03015137
vt 0.1173706 0.2790527
vt 0.5 0.0581665
vt 0.1785889 0.1170044
vt 0.5 0
vt 0.2159424 0.161499
vt 0.348877 0.08477783
vt 0.3291016 0.03015137
vt 0.5 0.9418945
vt 0.6708984 0.9697266
vt 0.6508789 0.9150391
vt 0.7841797 0.8383789
vt 0.5 1
vt 0.8212891 0.8828125
vt 0.3291016 0.9697266
vt 0.8828125 0.7207031
vt 0.348877 0.9150391
vt 0.9331055 0.75
vt 0.1785889 0.8828125
vt 0.9350586 0.5766602
vt 0.2159424 0.8383789
vt 0.9921875 0.5869141
vt 0.0670166 0.75
vt 0.9350586 0.4233398
vt 0.1173706 0.7207031
vt 0.9921875 0.4130859
vt 0.007595062 0.5869141
vt 0.8828125 0.2790527
vt 0.06488037 0.5766602
vt 0.9331055 0.25
vt 0.007595062 0.4130859
vt 0.7841797 0.161499
vt 0.06488037 0.4233398
vt 0.8212891 0.1170044
vt 0.0670166 0.25
vt 0.6508789 0.08477783
vt 0.1173706 0.2790527
vt 0.6708984 0.03015137
vt 0.1785889 0.1170044
vt 0.5 0.0581665
vt 0.2159424 0.161499
vt 0.5 0
vt 0.3291016 0.03015137
vt 0.348877 0.08477783
vn 0.1737061 0.9848633 0
vn -0.1737061 0.9848633 0
vn -0.1737061 0.9848633 0
vn 0.1737061 0.9848633 0
vn -0.1737061 0.9848633 0
vn 0.5 0.8662109 0
vn 0.1737061 0.9848633 0
vn 0.5 0.8662109 0
vn 0.7661133 0.6425781 0
vn 0.5 0.8662109 0
vn 0.7661133 0.6425781 0
vn 0.9394531 0.342041 0
vn 0.7661133 0.6425781 0
vn 0.9394531 0.342041 0
vn 1 0 0
vn 0.9394531 0.342041 0
vn 1 0 0
vn 0.9394531 -0.342041 0
vn 1 0 0
vn 0.9394531 -0.342041 0
vn 0.7661133 -0.6425781 0
vn 0.9394531 -0.342041 0
vn 0.7661133 -0.6425781 0
vn 0.5 -0.8662109 0
vn 0.7661133 -0.6425781 0
vn 0.5 -0.8662109 0
vn 0.1737061 -0.9848633 0
vn 0.5 -0.8662109 0
vn 0.1737061 -0.9848633 0
vn -0.1737061 -0.9848633 0
vn 0.1737061 -0.9848633 0
vn -0.1737061 -0.9848633 0
vn -0.5 -0.8662109 0
vn -0.1737061 -0.9848633 0
vn -0.5 -0.8662109 0
vn -0.7661133 -0.6425781 0
vn -0.5 -0.8662109 0
vn -0.7661133 -0.6425781 0
vn -0.9394531 -0.342041 0
vn -0.7661133 -0.6425781 0
vn -0.9394531 -0.342041 0
vn -1 0 0
vn -0.9394531 -0.342041 0
vn -1 0 0
vn -0.9394531 0.342041 0
vn -1 0 0
vn -0.9394531 0.342041 0
vn -0.7661133 0.6425781 0
vn -0.9394531 0.342041 0
vn -0.7661133 0.6425781 0
vn -0.5 0.8662109 0
vn -0.7661133 0.6425781 0
vn -0.5 0.8662109 0
vn -0.1737061 0.9848633 0
vn -0.5 0.8662109 0
vn -0.1737061 0.9848633 0
vn -0.1737061 0.9848633 0
vn 0.1737061 -0.9848633 0
vn -0.1737061 -0.9848633 0
vn 0.1737061 -0.9848633 0
vn -0.1737061 -0.9848633 0
vn -0.5 -0.8662109 0
vn -0.1737061 -0.9848633 0
vn 0.1737061 -0.9848633 0
vn -0.5 -0.8662109 0
vn -0.5 -0.8662109 0
vn -0.7661133 -0.6425781 0
vn -0.7661133 -0.6425781 0
vn -0.7661133 -0.6425781 0
vn -0.9394531 -0.342041 0
vn -0.9394531 -0.342041 0
vn -0.9394531 -0.342041 0
vn -1 0 0
vn -1 0 0
vn -0.9394531 0.342041 0
vn -1 0 0
vn -0.9394531 0.342041 0
vn -0.9394531 0.342041 0
vn -0.7661133 0.6425781 0
vn -0.7661133 0.6425781 0
vn -0.7661133 0.6425781 0
vn -0.5 0.8662109 0
vn -0.5 0.8662109 0
vn -0.5 0.8662109 0
vn -0.1737061 0.9848633 0
vn -0.1737061 0.9848633 0
vn -0.1737061 0.9848633 0
vn 0.1737061 0.9848633 0
vn 0.1737061 0.9848633 0
vn 0.1737061 0.9848633 0
vn 0.5 0.8662109 0
vn 0.5 0.8662109 0
vn 0.5 0.8662109 0
vn 0.7661133 0.6425781 0
vn 0.7661133 0.6425781 0
vn 0.7661133 0.6425781 0
vn 0.9394531 0.342041 0
vn 0.9394531 0.342041 0
vn 0.9394531 0.342041 0
vn 1 0 0
vn 1 0 0
vn 1 0 0
vn 0.9394531 -0.342041 0
vn 0.9394531 -0.342041 0
vn 0.9394531 -0.342041 0
vn 0.7661133 -0.6425781 0
vn 0.7661133 -0.6425781 0
vn 0.7661133 -0.6425781 0
vn 0.5 -0.8662109 0
vn 0.5 -0.8662109 0
vn 0.5 -0.8662109 0
vn 0.1737061 -0.9848633 0
vn 0.1737061 -0.9848633 0
vn 0.1737061 -0.9848633 0
vn 0 0 -1
vn 0 0 -1
vn 0 0 -1
vn 0 0 -1
vn 0 0 -1
vn 0 0 -1
vn 0 0 -1
vn 0 0 -1
vn 0 0 -1
vn 0 0 -1
vn 0 0 -1
vn 0 0 -1
vn 0 0 -1
vn 0 0 -1
vn 0 0 -1
vn 0 0 -1
vn 0 0 -1
vn 0 0 -1
vn 0 0 -1
vn 0 0 -1
vn 0 0 -1
vn 0 0 -1
vn 0 0 -1
vn 0 0 -1
vn 0 0 -1
vn 0 0 -1
vn 0 0 -1
vn 0 0 -1
vn 0 0 -1
vn 0 0 -1
vn 0 0 -1
vn 0 0 -1
vn 0 0 -1
vn 0 0 -1
vn 0 0 -1
vn 0 0 -1
vn 0 0 1
vn 0 0 1
vn 0 0 1
vn 0 0 1
vn 0 0 1
vn 0 0 1
vn 0 0 1
vn 0 0 1
vn 0 0 1
vn 0 0 1
vn 0 0 1
vn 0 0 1
vn 0 0 1
vn 0 0 1
vn 0 0 1
vn 0 0 1
vn 0 0 1
vn 0 0 1
vn 0 0 1
vn 0 0 1
vn 0 0 1
vn 0 0 1
vn 0 0 1
vn 0 0 1
vn 0 0 1
vn 0 0 1
vn 0 0 1
vn 0 0 1
vn 0 0 1
vn 0 0 1
vn 0 0 1
vn 0 0 1
vn 0 0 1
vn 0 0 1
vn 0 0 1
vn 0 0 1
g Cylinder001_0
f 3/3/3 2/2/2 1/1/1
f 4/4/4 1/1/1 2/2/2
f 2/2/2 5/5/5 4/4/4
f 1/1/1 4/4/4 6/6/6
f 7/7/7 4/4/4 5/5/5
f 8/8/8 6/6/6 4/4/4
f 4/4/4 7/7/7 8/8/8
f 6/6/6 8/8/8 9/9/9
f 10/10/10 8/8/8 7/7/7
f 11/11/11 9/9/9 8/8/8
f 8/8/8 10/10/10 11/11/11
f 9/9/9 11/11/11 12/12/12
f 13/13/13 11/11/11 10/10/10
f 14/14/14 12/12/12 11/11/11
f 11/11/11 13/13/13 14/14/14
f 12/12/12 14/14/14 15/15/15
f 16/16/16 14/14/14 13/13/13
f 17/17/17 15/15/15 14/14/14
f 14/14/14 16/16/16 17/17/17
f 15/15/15 17/17/17 18/18/18
f 19/19/19 17/17/17 16/16/16
f 20/20/20 18/18/18 17/17/17
f 17/17/17 19/19/19 20/20/20
f 18/18/18 20/20/20 21/21/21
f 22/22/22 20/20/20 19/19/19
f 23/23/23 21/21/21 20/20/20
f 20/20/20 22/22/22 23/23/23
f 21/21/21 23/23/23 24/24/24
f 25/25/25 23/23/23 22/22/22
f 26/26/26 24/24/24 23/23/23
f 23/23/23 25/25/25 26/26/26
f 24/24/24 26/26/26 27/27/27
f 28/28/28 26/26/26 25/25/25
f 29/29/29 27/27/27 26/26/26
f 26/26/26 28/28/28 29/29/29
f 27/27/27 29/29/29 30/30/30
f 31/31/31 29/29/29 28/28/28
f 32/32/32 30/30/30 29/29/29
f 29/29/29 31/31/31 32/32/32
f 30/30/30 32/32/32 33/33/33
f 34/34/34 32/32/32 31/31/31
f 35/35/35 33/33/33 32/32/32
f 32/32/32 34/34/34 35/35/35
f 33/33/33 35/35/35 36/36/36
f 37/37/37 35/35/35 34/34/34
f 38/38/38 36/36/36 35/35/35
f 35/35/35 37/37/37 38/38/38
f 36/36/36 38/38/38 39/39/39
f 40/40/40 38/38/38 37/37/37
f 41/41/41 39/39/39 38/38/38
f 38/38/38 40/40/40 41/41/41
f 39/39/39 41/41/41 42/42/42
f 43/43/43 41/41/41 40/40/40
f 44/44/44 42/42/42 41/41/41
f 41/41/41 43/43/43 44/44/44
f 42/42/42 44/44/44 45/45/45
f 46/46/46 44/44/44 43/43/43
f 47/47/47 45/45/45 44/44/44
f 44/44/44 46/46/46 47/47/47
f 45/45/45 47/47/47 48/48/48
f 49/49/49 47/47/47 46/46/46
f 50/50/50 48/48/48 47/47/47
f 47/47/47 49/49/49 50/50/50
f 48/48/48 50/50/50 51/51/51
f 52/52/52 50/50/50 49/49/49
f 53/53/53 51/51/51 50/50/50
f 50/50/50 52/52/52 53/53/53
f 51/51/51 53/53/53 54/54/54
f 55/55/55 53/53/53 52/52/52
f 56/56/56 54/54/54 53/53/53
f 53/53/53 55/55/55 56/56/56
f 57/57/57 56/56/56 55/55/55
f 60/60/60 59/59/59 58/58/58
f 61/61/61 58/58/58 59/59/59
f 59/59/59 62/62/62 61/61/61
f 61/61/61 63/63/63 58/58/58
f 64/64/64 58/58/58 63/63/63
f 63/63/63 61/61/61 65/65/65
f 66/66/66 61/61/61 62/62/62
f 66/66/66 65/65/65 61/61/61
f 62/62/62 67/67/67 66/66/66
f 65/65/65 66/66/66 68/68/68
f 69/69/69 66/66/66 67/67/67
f 69/69/69 68/68/68 66/66/66
f 67/67/67 70/70/70 69/69/69
f 68/68/68 69/69/69 71/71/71
f 72/72/72 69/69/69 70/70/70
f 72/72/72 71/71/71 69/69/69
f 70/70/70 73/73/73 72/72/72
f 72/72/72 74/74/74 71/71/71
f 74/74/74 72/72/72 73/73/73
f 74/74/74 73/73/73 75/75/75
f 76/76/76 71/71/71 74/74/74
f 74/74/74 75/75/75 76/76/76
f 77/77/77 75/75/75 73/73/73
f 78/78/78 76/76/76 75/75/75
f 77/77/77 79/79/79 75/75/75
f 78/78/78 75/75/75 80/80/80
f 81/81/81 75/75/75 79/79/79
f 81/81/81 80/80/80 75/75/75
f 79/79/79 82/82/82 81/81/81
f 80/80/80 81/81/81 83/83/83
f 84/84/84 81/81/81 82/82/82
f 84/84/84 83/83/83 81/81/81
f 82/82/82 85/85/85 84/84/84
f 83/83/83 84/84/84 86/86/86
f 87/87/87 84/84/84 85/85/85
f 87/87/87 86/86/86 84/84/84
f 85/85/85 88/88/88 87/87/87
f 86/86/86 87/87/87 89/89/89
f 90/90/90 87/87/87 88/88/88
f 90/90/90 89/89/89 87/87/87
f 88/88/88 91/91/91 90/90/90
f 89/89/89 90/90/90 92/92/92
f 93/93/93 90/90/90 91/91/91
f 93/93/93 92/92/92 90/90/90
f 91/91/91 94/94/94 93/93/93
f 92/92/92 93/93/93 95/95/95
f 96/96/96 93/93/93 94/94/94
f 96/96/96 95/95/95 93/93/93
f 94/94/94 97/97/97 96/96/96
f 95/95/95 96/96/96 98/98/98
f 99/99/99 96/96/96 97/97/97
f 99/99/99 98/98/98 96/96/96
f 97/97/97 100/100/100 99/99/99
f 98/98/98 99/99/99 101/101/101
f 102/102/102 99/99/99 100/100/100
f 102/102/102 101/101/101 99/99/99
f 100/100/100 103/103/103 102/102/102
f 101/101/101 102/102/102 104/104/104
f 105/105/105 102/102/102 103/103/103
f 105/105/105 104/104/104 102/102/102
f 103/103/103 106/106/106 105/105/105
f 104/104/104 105/105/105 107/107/107
f 108/108/108 105/105/105 106/106/106
f 108/108/108 107/107/107 105/105/105
f 106/106/106 109/109/109 108/108/108
f 107/107/107 108/108/108 110/110/110
f 111/111/111 108/108/108 109/109/109
f 111/111/111 110/110/110 108/108/108
f 109/109/109 112/112/112 111/111/111
f 110/110/110 111/111/111 113/113/113
f 114/114/114 111/111/111 112/112/112
f 114/114/114 113/113/113 111/111/111
f 117/117/117 116/116/116 115/115/115
f 116/116/116 117/117/117 118/118/118
f 116/116/116 119/119/119 115/115/115
f 120/120/120 116/116/116 118/118/118
f 115/115/115 119/119/119 121/121/121
f 122/122/122 120/120/120 118/118/118
f 119/119/119 123/123/123 121/121/121
f 124/124/124 122/122/122 118/118/118
f 121/121/121 123/123/123 125/125/125
f 126/126/126 122/122/122 124/124/124
f 123/123/123 127/127/127 125/125/125
f 128/128/128 126/126/126 124/124/124
f 125/125/125 127/127/127 129/129/129
f 130/130/130 126/126/126 128/128/128
f 127/127/127 131/131/131 129/129/129
f 132/132/132 130/130/130 128/128/128
f 129/129/129 131/131/131 133/133/133
f 134/134/134 130/130/130 132/132/132
f 131/131/131 135/135/135 133/133/133
f 136/136/136 134/134/134 132/132/132
f 133/133/133 135/135/135 137/137/137
f 138/138/138 134/134/134 136/136/136
f 135/135/135 139/139/139 137/137/137
f 140/140/140 138/138/138 136/136/136
f 137/137/137 139/139/139 141/141/141
f 142/142/142 138/138/138 140/140/140
f 139/139/139 143/143/143 141/141/141
f 144/144/144 142/142/142 140/140/140
f 141/141/141 143/143/143 145/145/145
f 146/146/146 142/142/142 144/144/144
f 143/143/143 147/147/147 145/145/145
f 148/148/148 146/146/146 144/144/144
f 145/145/145 147/147/147 149/149/149
f 150/150/150 146/146/146 148/148/148
f 147/147/147 150/150/150 149/149/149
f 149/149/149 150/150/150 148/148/148
f 153/153/153 152/152/152 151/151/151
f 152/152/152 153/153/153 154/154/154
f 152/152/152 155/155/155 151/151/151
f 156/156/156 152/152/152 154/154/154
f 155/155/155 157/157/157 151/151/151
f 158/158/158 156/156/156 154/154/154
f 151/151/151 157/157/157 159/159/159
f 160/160/160 156/156/156 158/158/158
f 157/157/157 161/161/161 159/159/159
f 162/162/162 160/160/160 158/158/158
f 159/159/159 161/161/161 163/163/163
f 164/164/164 160/160/160 162/162/162
f 161/161/161 165/165/165 163/163/163
f 166/166/166 164/164/164 162/162/162
f 163/163/163 165/165/165 167/167/167
f 168/168/168 164/164/164 166/166/166
f 165/165/165 169/169/169 167/167/167
f 170/170/170 168/168/168 166/166/166
f 167/167/167 169/169/169 171/171/171
f 172/172/172 168/168/168 170/170/170
f 169/169/169 173/173/173 171/171/171
f 174/174/174 172/172/172 170/170/170
f 171/171/171 173/173/173 175/175/175
f 176/176/176 172/172/172 174/174/174
f 173/173/173 177/177/177 175/175/175
f 178/178/178 176/176/176 174/174/174
f 175/175/175 177/177/177 179/179/179
f 180/180/180 176/176/176 178/178/178
f 177/177/177 181/181/181 179/179/179
f 182/182/182 180/180/180 178/178/178
f 179/179/179 181/181/181 183/183/183
f 184/184/184 180/180/180 182/182/182
f 181/181/181 185/185/185 183/183/183
f 186/186/186 184/184/184 182/182/182
f 183/183/183 185/185/185 186/186/186
f 185/185/185 184/184/184 186/186/186
