g pCube1
v -0.01391075 -0.01065815 0.00665925
v -0.01391075 0.01065815 0.00665925
v -0.005787811 0.01065815 0.00665925
v -0.005787811 -0.01065815 0.00665925
v -0.01391075 0.01065815 -0.002155809
v -0.01391075 0.01065815 -0.00665925
v -0.005787811 0.01065815 -0.00665925
v -0.005787811 0.01065815 -0.002155809
v -0.01391075 0.01065815 0.00665925
v -0.005787811 0.01065815 0.00665925
v 0.005787811 0.01065815 -0.00665925
v 0.005787811 0.01065815 -0.002155809
v 0.01391075 0.01065815 -0.00665925
v 0.01391075 0.01065815 -0.002155809
v 0.005787811 0.01065815 0.00665925
v 0.01391075 0.01065815 0.00665925
v -0.01391075 0.01065815 -0.00665925
v -0.01391075 -0.01065815 -0.00665925
v -0.005787811 -0.01065815 -0.00665925
v -0.005787811 0.01065815 -0.00665925
v 0.005787811 -0.01065815 -0.00665925
v 0.005787811 0.01065815 -0.00665925
v 0.01391075 0.01065815 -0.00665925
v 0.01391075 -0.01065815 -0.00665925
v 0.01391075 -0.01065815 -0.00665925
v 0.01391075 0.01065815 -0.002155809
v 0.01391075 0.01065815 -0.00665925
v 0.01391075 -0.01065815 -0.002155809
v 0.01391075 0.01065815 0.00665925
v 0.01391075 -0.01065815 0.00665925
v -0.01391075 0.01065815 -0.00665925
v -0.01391075 0.01065815 -0.002155809
v -0.01391075 -0.01065815 -0.002155809
v -0.01391075 -0.01065815 -0.00665925
v 0.005787811 -0.01065815 -0.002155809
v 0.01391075 -0.01065815 -0.002155809
v 0.01391075 -0.01065815 -0.00665925
v 0.005787811 -0.01065815 -0.00665925
v -0.005787811 -0.01065815 -0.00665925
v -0.005787811 -0.01065815 -0.002155809
v -0.01391075 -0.01065815 -0.00665925
v -0.01391075 -0.01065815 -0.002155809
v -0.005787811 -0.01065815 0.00665925
v -0.01391075 -0.01065815 0.00665925
v 0.005787811 -0.01065815 0.00665925
v 0.01391075 -0.01065815 0.00665925
v 0.01391075 -0.01065815 -0.002155809
v 0.005787811 0.01065815 0.00665925
v 0.01391075 0.01065815 0.00665925
v 0.01391075 -0.01065815 0.00665925
v 0.005787811 -0.01065815 0.00665925
v 0.005787811 0.01065815 -0.002155809
v 0.005787811 -0.01065815 -0.002155809
v -0.005787811 -0.01065815 -0.002155809
v -0.005787811 0.01065815 -0.002155809
v -0.005787811 -0.01065815 -0.002155809
v -0.005787811 -0.01065815 0.00665925
v -0.005787811 0.01065815 0.00665925
v -0.005787811 0.01065815 -0.002155809
v -0.01391075 0.01065815 -0.002155809
v -0.01391075 0.01065815 0.00665925
v -0.01391075 -0.01065815 0.00665925
v -0.01391075 -0.01065815 -0.002155809
v 0.005787811 0.01065815 -0.002155809
v 0.005787811 0.01065815 0.00665925
v 0.005787811 -0.01065815 0.00665925
v 0.005787811 -0.01065815 -0.002155809
vt 0.9165039 0.100769
vt 0.9165039 0.1281738
vt 0.9267578 0.1281738
vt 0.9267578 0.100769
vt 0.9106445 0.05157471
vt 0.9257813 0.05154419
vt 0.9257813 0.04772949
vt 0.9101563 0.04776001
vt 0.9106445 0.05157471
vt 0.9101563 0.04776001
vt 0.9257813 0.0401001
vt 0.9101563 0.04013062
vt 0.9257813 0.0362854
vt 0.9101563 0.03634644
vt 0.9101563 0.04013062
vt 0.9101563 0.03634644
vt 0.9257813 0.05154419
vt 0.940918 0.05148315
vt 0.940918 0.04766846
vt 0.9257813 0.04772949
vt 0.940918 0.04003906
vt 0.9257813 0.0401001
vt 0.9257813 0.0362854
vt 0.940918 0.03622437
vt 0.8798828 0.03643799
vt 0.8950195 0.01809692
vt 0.8798828 0.02119446
vt 0.8950195 0.03942871
vt 0.90625 0.01823425
vt 0.90625 0.03921509
vt 0.8798828 0.06695557
vt 0.8950195 0.06689453
vt 0.8950195 0.05163574
vt 0.8798828 0.05169678
vt 0.8950195 0.04019165
vt 0.8950195 0.03942871
vt 0.8798828 0.03643799
vt 0.8798828 0.04025269
vt 0.8798828 0.04788208
vt 0.8950195 0.04782104
vt 0.8798828 0.05169678
vt 0.8950195 0.05163574
vt 0.8950195 0.04782104
vt 0.8950195 0.05163574
vt 0.8950195 0.04019165
vt 0.8950195 0.03637695
vt 0.8950195 0.03942871
vt 0.9272461 0.1281738
vt 0.9375 0.1281738
vt 0.9375 0.100769
vt 0.9272461 0.100769
vt 0.9296875 0.1220093
vt 0.9296875 0.1017456
vt 0.918457 0.1017456
vt 0.918457 0.1220093
vt 0.9384766 0.1017456
vt 0.9296875 0.1017456
vt 0.9296875 0.1220093
vt 0.9384766 0.1220093
vt 0.9106445 0.05157471
vt 0.9106445 0.05157471
vt 0.8950195 0.05163574
vt 0.8950195 0.05163574
vt 0.9384766 0.1220093
vt 0.9467773 0.1220093
vt 0.9467773 0.1017456
vt 0.9384766 0.1017456
vn 0 0 1
vn 0 0 1
vn 0 0 1
vn 0 0 1
vn 0 1 0
vn 0 1 0
vn 0 1 0
vn 0 1 0
vn 0 1 0
vn 0 1 0
vn 0 1 0
vn 0 1 0
vn 0 1 0
vn 0 1 0
vn 0 1 0
vn 0 1 0
vn 0 0 -1
vn 0 0 -1
vn 0 0 -1
vn 0 0 -1
vn 0 0 -1
vn 0 0 -1
vn 0 0 -1
vn 0 0 -1
vn 1 0 0
vn 1 0 0
vn 1 0 0
vn 1 0 0
vn 1 0 0
vn 1 0 0
vn -1 0 0
vn -1 0 0
vn -1 0 0
vn -1 0 0
vn 0 -1 0
vn 0 -1 0
vn 0 -1 0
vn 0 -1 0
vn 0 -1 0
vn 0 -1 0
vn 0 -1 0
vn 0 -1 0
vn 0 -1 0
vn 0 -1 0
vn 0 -1 0
vn 0 -1 0
vn 0 -1 0
vn 0 0 1
vn 0 0 1
vn 0 0 1
vn 0 0 1
vn 0 0 1
vn 0 0 1
vn 0 0 1
vn 0 0 1
vn 1 0 0
vn 1 0 0
vn 1 0 0
vn 1 0 0
vn -1 0 0
vn -1 0 0
vn -1 0 0
vn -1 0 0
vn -1 0 0
vn -1 0 0
vn -1 0 0
vn -1 0 0
g pCube1_0
f 3/3/3 2/2/2 1/1/1
f 4/4/4 3/3/3 1/1/1
f 7/7/7 6/6/6 5/5/5
f 8/8/8 7/7/7 5/5/5
f 5/5/5 9/9/9 8/8/8
f 9/9/9 10/10/10 8/8/8
f 7/7/7 8/8/8 11/11/11
f 8/8/8 12/12/12 11/11/11
f 13/13/13 11/11/11 12/12/12
f 14/14/14 13/13/13 12/12/12
f 12/12/12 15/15/15 14/14/14
f 15/15/15 16/16/16 14/14/14
f 19/19/19 18/18/18 17/17/17
f 20/20/20 19/19/19 17/17/17
f 19/19/19 20/20/20 21/21/21
f 20/20/20 22/22/22 21/21/21
f 22/22/22 23/23/23 21/21/21
f 23/23/23 24/24/24 21/21/21
f 27/27/27 26/26/26 25/25/25
f 26/26/26 28/28/28 25/25/25
f 26/26/26 29/29/29 28/28/28
f 29/29/29 30/30/30 28/28/28
f 33/33/33 32/32/32 31/31/31
f 34/34/34 33/33/33 31/31/31
f 37/37/37 36/36/36 35/35/35
f 38/38/38 37/37/37 35/35/35
f 39/39/39 38/38/38 35/35/35
f 40/40/40 39/39/39 35/35/35
f 39/39/39 40/40/40 41/41/41
f 40/40/40 42/42/42 41/41/41
f 40/40/40 43/43/43 42/42/42
f 43/43/43 44/44/44 42/42/42
f 46/46/46 45/45/45 35/35/35
f 47/47/47 46/46/46 35/35/35
f 50/50/50 49/49/49 48/48/48
f 51/51/51 50/50/50 48/48/48
f 54/54/54 53/53/53 52/52/52
f 55/55/55 54/54/54 52/52/52
f 58/58/58 57/57/57 56/56/56
f 59/59/59 58/58/58 56/56/56
f 62/62/62 61/61/61 60/60/60
f 63/63/63 62/62/62 60/60/60
f 66/66/66 65/65/65 64/64/64
f 67/67/67 66/66/66 64/64/64
