g pCylinder1
v 0.01325516 0.004306857 -0.01656862
v 0.01325516 0.004306857 0.01656862
v 0.01127552 0.008192127 0.01656862
v 0.01127552 0.008192127 -0.01656862
v 0.008192139 0.0112755 0.01656862
v 0.008192139 0.0112755 -0.01656862
v 0.00430687 0.01325515 0.01656862
v 0.00430687 0.01325515 -0.01656862
v 0 0.01393728 0.01656862
v 0 0.01393728 -0.01656862
v -0.00430687 0.01325515 0.01656862
v -0.00430687 0.01325515 -0.01656862
v -0.008192139 0.0112755 0.01656862
v -0.008192139 0.0112755 -0.01656862
v -0.01127548 0.008192127 0.01656862
v -0.01127548 0.008192127 -0.01656862
v -0.01325516 0.004306853 0.01656862
v -0.01325516 0.004306853 -0.01656862
v -0.01393726 -2.384186E-09 0.01656862
v -0.01393726 -2.384186E-09 -0.01656862
v -0.01325516 -0.004306857 0.01656862
v -0.01325516 -0.004306857 -0.01656862
v -0.01127548 -0.008192131 0.01656862
v -0.01127548 -0.008192131 -0.01656862
v -0.008192139 -0.0112755 0.01656862
v -0.008192139 -0.0112755 -0.01656862
v -0.00430687 -0.01325514 0.01656862
v -0.00430687 -0.01325514 -0.01656862
v 0 -0.01393728 0.01656862
v 0 -0.01393728 -0.01656862
v 0.00430687 -0.01325514 0.01656862
v 0.00430687 -0.01325514 -0.01656862
v 0.008192139 -0.0112755 0.01656862
v 0.008192139 -0.0112755 -0.01656862
v 0.01127548 -0.008192129 0.01656862
v 0.01127548 -0.008192129 -0.01656862
v 0.01325516 -0.004306857 0.01656862
v 0.01325516 -0.004306857 -0.01656862
v 0.01393726 -2.384186E-09 0.01656862
v 0.01393726 -2.384186E-09 -0.01656862
v 0.01325516 0.004306857 0.01656862
v 0.01325516 0.004306857 -0.01656862
v 0.01325516 -0.004306857 -0.01656862
v 0.01393726 -2.384186E-09 -0.01656862
v 0.01325516 0.004306857 -0.01656862
v 0.01127548 -0.008192129 -0.01656862
v 0.01127552 0.008192127 -0.01656862
v 0.008192139 0.0112755 -0.01656862
v 0.008192139 -0.0112755 -0.01656862
v 0.00430687 -0.01325514 -0.01656862
v 0.00430687 0.01325515 -0.01656862
v 0 -0.01393728 -0.01656862
v 0 0.01393728 -0.01656862
v -0.00430687 -0.01325514 -0.01656862
v -0.00430687 0.01325515 -0.01656862
v -0.008192139 -0.0112755 -0.01656862
v -0.008192139 0.0112755 -0.01656862
v -0.01127548 -0.008192131 -0.01656862
v -0.01127548 0.008192127 -0.01656862
v -0.01325516 -0.004306857 -0.01656862
v -0.01325516 0.004306853 -0.01656862
v -0.01393726 -2.384186E-09 -0.01656862
v 0.01325516 0.004306857 0.01656862
v 0.01393726 -2.384186E-09 0.01656862
v 0.01325516 -0.004306857 0.01656862
v 0.01127552 0.008192127 0.01656862
v 0.01127548 -0.008192129 0.01656862
v 0.008192139 0.0112755 0.01656862
v 0.008192139 -0.0112755 0.01656862
v 0.00430687 0.01325515 0.01656862
v 0.00430687 -0.01325514 0.01656862
v 0 0.01393728 0.01656862
v 0 -0.01393728 0.01656862
v -0.00430687 0.01325515 0.01656862
v -0.00430687 -0.01325514 0.01656862
v -0.008192139 0.0112755 0.01656862
v -0.008192139 -0.0112755 0.01656862
v -0.01127548 0.008192127 0.01656862
v -0.01127548 -0.008192131 0.01656862
v -0.01325516 0.004306853 0.01656862
v -0.01325516 -0.004306857 0.01656862
v -0.01393726 -2.384186E-09 0.01656862
vt 0.7729492 0.0188446
vt 0.7729492 0.06829834
vt 0.7827148 0.06829834
vt 0.7827148 0.0188446
vt 0.7924805 0.06829834
vt 0.7924805 0.0188446
vt 0.8022461 0.06829834
vt 0.8022461 0.0188446
vt 0.8120117 0.06829834
vt 0.8120117 0.0188446
vt 0.8222656 0.06829834
vt 0.8222656 0.0188446
vt 0.8320313 0.06829834
vt 0.8320313 0.0188446
vt 0.8417969 0.06829834
vt 0.8417969 0.0188446
vt 0.8515625 0.06829834
vt 0.8515625 0.0188446
vt 0.8613281 0.06829834
vt 0.8613281 0.0188446
vt 0.8710938 0.06829834
vt 0.8710938 0.0188446
vt 0.8813477 0.06829834
vt 0.8813477 0.0188446
vt 0.8911133 0.06829834
vt 0.8911133 0.0188446
vt 0.9008789 0.06829834
vt 0.9008789 0.0188446
vt 0.9106445 0.06829834
vt 0.9106445 0.0188446
vt 0.9204102 0.06829834
vt 0.9204102 0.0188446
vt 0.9306641 0.06829834
vt 0.9306641 0.0188446
vt 0.9404297 0.06829834
vt 0.9404297 0.0188446
vt 0.9501953 0.06829834
vt 0.9501953 0.0188446
vt 0.9599609 0.06829834
vt 0.9599609 0.0188446
vt 0.9697266 0.06829834
vt 0.9697266 0.0188446
vt 0.9575195 0.1185913
vt 0.9584961 0.1107788
vt 0.9575195 0.1029663
vt 0.9536133 0.1256104
vt 0.9536133 0.09594727
vt 0.9482422 0.09033203
vt 0.9482422 0.1312256
vt 0.940918 0.1347656
vt 0.940918 0.08673096
vt 0.9331055 0.1361084
vt 0.9331055 0.08551025
vt 0.925293 0.1347656
vt 0.925293 0.08673096
vt 0.918457 0.1312256
vt 0.918457 0.09033203
vt 0.9125977 0.1256104
vt 0.9125977 0.09594727
vt 0.9091797 0.1185913
vt 0.9091797 0.1029663
vt 0.9082031 0.1107788
vt 0.9570313 0.1187744
vt 0.9584961 0.1110229
vt 0.9570313 0.1032104
vt 0.9536133 0.1258545
vt 0.9536133 0.09613037
vt 0.9482422 0.1314697
vt 0.9482422 0.09057617
vt 0.940918 0.1350098
vt 0.940918 0.0869751
vt 0.9331055 0.1362305
vt 0.9331055 0.08575439
vt 0.925293 0.1350098
vt 0.925293 0.0869751
vt 0.918457 0.1314697
vt 0.918457 0.09057617
vt 0.9125977 0.1258545
vt 0.9125977 0.09613037
vt 0.9091797 0.1187744
vt 0.9091797 0.1032104
vt 0.9077148 0.1110229
vn 0.9511719 0.309082 0
vn 0.9511719 0.309082 0
vn 0.809082 0.5878906 0
vn 0.809082 0.5878906 0
vn 0.5878906 0.809082 0
vn 0.5878906 0.809082 0
vn 0.309082 0.9511719 0
vn 0.309082 0.9511719 0
vn 0 1 0
vn 0 1 0
vn -0.309082 0.9511719 0
vn -0.309082 0.9511719 0
vn -0.5878906 0.809082 0
vn -0.5878906 0.809082 0
vn -0.809082 0.5878906 0
vn -0.809082 0.5878906 0
vn -0.9511719 0.309082 0
vn -0.9511719 0.309082 0
vn -1 0 0
vn -1 0 0
vn -0.9511719 -0.309082 0
vn -0.9511719 -0.309082 0
vn -0.809082 -0.5878906 0
vn -0.809082 -0.5878906 0
vn -0.5878906 -0.809082 0
vn -0.5878906 -0.809082 0
vn -0.309082 -0.9511719 0
vn -0.309082 -0.9511719 0
vn 2.980232E-07 -1 0
vn 2.980232E-07 -1 0
vn 0.309082 -0.9511719 0
vn 0.309082 -0.9511719 0
vn 0.5878906 -0.809082 0
vn 0.5878906 -0.809082 0
vn 0.809082 -0.5878906 0
vn 0.809082 -0.5878906 0
vn 0.9511719 -0.309082 0
vn 0.9511719 -0.309082 0
vn 1 0 0
vn 1 0 0
vn 0.9511719 0.309082 0
vn 0.9511719 0.309082 0
vn 1.788139E-07 0 -1
vn 1.788139E-07 0 -1
vn 1.788139E-07 0 -1
vn 1.788139E-07 0 -1
vn 1.788139E-07 0 -1
vn 1.788139E-07 0 -1
vn 1.788139E-07 0 -1
vn 1.788139E-07 0 -1
vn 1.788139E-07 0 -1
vn 1.788139E-07 0 -1
vn 1.788139E-07 0 -1
vn 1.788139E-07 0 -1
vn 1.788139E-07 0 -1
vn 1.788139E-07 0 -1
vn 1.788139E-07 0 -1
vn 1.788139E-07 0 -1
vn 1.788139E-07 0 -1
vn 1.788139E-07 0 -1
vn 1.788139E-07 0 -1
vn 1.788139E-07 0 -1
vn -2.980232E-07 0 1
vn -2.980232E-07 0 1
vn -2.980232E-07 0 1
vn -2.980232E-07 0 1
vn -2.980232E-07 0 1
vn -2.980232E-07 0 1
vn -2.980232E-07 0 1
vn -2.980232E-07 0 1
vn -2.980232E-07 0 1
vn -2.980232E-07 0 1
vn -2.980232E-07 0 1
vn -2.980232E-07 0 1
vn -2.980232E-07 0 1
vn -2.980232E-07 0 1
vn -2.980232E-07 0 1
vn -2.980232E-07 0 1
vn -2.980232E-07 0 1
vn -2.980232E-07 0 1
vn -2.980232E-07 0 1
vn -2.980232E-07 0 1
g pCylinder1_0
f 3/3/3 2/2/2 1/1/1
f 4/4/4 3/3/3 1/1/1
f 5/5/5 3/3/3 4/4/4
f 6/6/6 5/5/5 4/4/4
f 7/7/7 5/5/5 6/6/6
f 8/8/8 7/7/7 6/6/6
f 9/9/9 7/7/7 8/8/8
f 10/10/10 9/9/9 8/8/8
f 11/11/11 9/9/9 10/10/10
f 12/12/12 11/11/11 10/10/10
f 13/13/13 11/11/11 12/12/12
f 14/14/14 13/13/13 12/12/12
f 15/15/15 13/13/13 14/14/14
f 16/16/16 15/15/15 14/14/14
f 17/17/17 15/15/15 16/16/16
f 18/18/18 17/17/17 16/16/16
f 19/19/19 17/17/17 18/18/18
f 20/20/20 19/19/19 18/18/18
f 21/21/21 19/19/19 20/20/20
f 22/22/22 21/21/21 20/20/20
f 23/23/23 21/21/21 22/22/22
f 24/24/24 23/23/23 22/22/22
f 25/25/25 23/23/23 24/24/24
f 26/26/26 25/25/25 24/24/24
f 27/27/27 25/25/25 26/26/26
f 28/28/28 27/27/27 26/26/26
f 29/29/29 27/27/27 28/28/28
f 30/30/30 29/29/29 28/28/28
f 31/31/31 29/29/29 30/30/30
f 32/32/32 31/31/31 30/30/30
f 33/33/33 31/31/31 32/32/32
f 34/34/34 33/33/33 32/32/32
f 35/35/35 33/33/33 34/34/34
f 36/36/36 35/35/35 34/34/34
f 37/37/37 35/35/35 36/36/36
f 38/38/38 37/37/37 36/36/36
f 39/39/39 37/37/37 38/38/38
f 40/40/40 39/39/39 38/38/38
f 41/41/41 39/39/39 40/40/40
f 42/42/42 41/41/41 40/40/40
f 45/45/45 44/44/44 43/43/43
f 43/43/43 46/46/46 45/45/45
f 46/46/46 47/47/47 45/45/45
f 46/46/46 48/48/48 47/47/47
f 46/46/46 49/49/49 48/48/48
f 49/49/49 50/50/50 48/48/48
f 50/50/50 51/51/51 48/48/48
f 50/50/50 52/52/52 51/51/51
f 52/52/52 53/53/53 51/51/51
f 52/52/52 54/54/54 53/53/53
f 54/54/54 55/55/55 53/53/53
f 54/54/54 56/56/56 55/55/55
f 56/56/56 57/57/57 55/55/55
f 56/56/56 58/58/58 57/57/57
f 58/58/58 59/59/59 57/57/57
f 58/58/58 60/60/60 59/59/59
f 60/60/60 61/61/61 59/59/59
f 60/60/60 62/62/62 61/61/61
f 65/65/65 64/64/64 63/63/63
f 63/63/63 66/66/66 65/65/65
f 66/66/66 67/67/67 65/65/65
f 66/66/66 68/68/68 67/67/67
f 68/68/68 69/69/69 67/67/67
f 68/68/68 70/70/70 69/69/69
f 70/70/70 71/71/71 69/69/69
f 70/70/70 72/72/72 71/71/71
f 72/72/72 73/73/73 71/71/71
f 72/72/72 74/74/74 73/73/73
f 74/74/74 75/75/75 73/73/73
f 74/74/74 76/76/76 75/75/75
f 76/76/76 77/77/77 75/75/75
f 76/76/76 78/78/78 77/77/77
f 78/78/78 79/79/79 77/77/77
f 78/78/78 80/80/80 79/79/79
f 80/80/80 81/81/81 79/79/79
f 80/80/80 82/82/82 81/81/81
