g polySurface42
v 0.004273853 -0.09452569 -0.003105087
v 0.004273853 0.09452569 -0.003105087
v 0.001632442 0.09452569 -0.005024185
v 0.001632442 -0.09452569 -0.005024185
v -0.001632481 0.09452569 -0.005024185
v -0.001632481 -0.09452569 -0.005024185
v -0.004273853 0.09452569 -0.003105087
v -0.004273853 -0.09452569 -0.003105087
v -0.005282764 0.09452569 7.629394E-08
v -0.005282764 -0.09452569 7.629394E-08
v -0.004273853 0.09452569 0.003105087
v -0.004273853 -0.09452569 0.003105087
v -0.001632481 0.09452569 0.005024185
v -0.001632481 -0.09452569 0.005024185
v 0.001632442 0.09452569 0.005024185
v 0.001632442 -0.09452569 0.005024185
v 0.004273853 0.09452569 0.003105087
v 0.004273853 -0.09452569 0.003105087
v 0.005282764 0.09452569 7.629394E-08
v 0.005282764 -0.09452569 7.629394E-08
v 0.004273853 0.09452569 -0.003105087
v 0.004273853 -0.09452569 -0.003105087
v 0.001632442 -0.09452569 -0.005024185
v -1.907349E-08 -0.09452569 7.629394E-08
v 0.004273853 -0.09452569 -0.003105087
v -0.001632481 -0.09452569 -0.005024185
v 0.005282764 -0.09452569 7.629394E-08
v -0.004273853 -0.09452569 -0.003105087
v 0.004273853 -0.09452569 0.003105087
v -0.005282764 -0.09452569 7.629394E-08
v 0.001632442 -0.09452569 0.005024185
v -0.004273853 -0.09452569 0.003105087
v -0.001632481 -0.09452569 0.005024185
vt 0.375 0.3125
vt 0.375 0.6884766
vt 0.3999023 0.6884766
vt 0.3999023 0.3125
vt 0.4250488 0.6884766
vt 0.4250488 0.3125
vt 0.4499512 0.6884766
vt 0.4499512 0.3125
vt 0.4750977 0.6884766
vt 0.4750977 0.3125
vt 0.5 0.6884766
vt 0.5 0.3125
vt 0.5249023 0.6884766
vt 0.5249023 0.3125
vt 0.5498047 0.6884766
vt 0.5498047 0.3125
vt 0.5751953 0.6884766
vt 0.5751953 0.3125
vt 0.6000977 0.6884766
vt 0.6000977 0.3125
vt 0.625 0.6884766
vt 0.625 0.3125
vt 0.5483398 0.007648468
vt 0.5 0.1500244
vt 0.6264648 0.06439209
vt 0.4516602 0.007648468
vt 0.65625 0.15625
vt 0.3735352 0.06439209
vt 0.6264648 0.2480469
vt 0.34375 0.15625
vt 0.5483398 0.3049316
vt 0.3735352 0.2480469
vt 0.4516602 0.3049316
vn 0.809082 0 -0.5878906
vn 0.809082 0 -0.5878906
vn 0.309082 0 -0.9511719
vn 0.309082 0 -0.9511719
vn -0.309082 0 -0.9511719
vn -0.309082 0 -0.9511719
vn -0.809082 0 -0.5878906
vn -0.809082 0 -0.5878906
vn -1 0 0
vn -1 0 0
vn -0.809082 0 0.5878906
vn -0.809082 0 0.5878906
vn -0.309082 0 0.9511719
vn -0.309082 0 0.9511719
vn 0.309082 0 0.9511719
vn 0.309082 0 0.9511719
vn 0.809082 0 0.5878906
vn 0.809082 0 0.5878906
vn 1 0 0
vn 1 0 0
vn 0.809082 0 -0.5878906
vn 0.809082 0 -0.5878906
vn 0 -1 0
vn 0 -1 -5.960464E-07
vn 0 -1 0
vn 0 -1 0
vn 0 -1 0
vn 0 -1 0
vn 0 -1 0
vn 0 -1 -2.920628E-06
vn 0 -1 0
vn 0 -1 -2.920628E-06
vn 0 -1 0
g polySurface42_0
f 3/3/3 2/2/2 1/1/1
f 4/4/4 3/3/3 1/1/1
f 5/5/5 3/3/3 4/4/4
f 6/6/6 5/5/5 4/4/4
f 7/7/7 5/5/5 6/6/6
f 8/8/8 7/7/7 6/6/6
f 9/9/9 7/7/7 8/8/8
f 10/10/10 9/9/9 8/8/8
f 11/11/11 9/9/9 10/10/10
f 12/12/12 11/11/11 10/10/10
f 13/13/13 11/11/11 12/12/12
f 14/14/14 13/13/13 12/12/12
f 15/15/15 13/13/13 14/14/14
f 16/16/16 15/15/15 14/14/14
f 17/17/17 15/15/15 16/16/16
f 18/18/18 17/17/17 16/16/16
f 19/19/19 17/17/17 18/18/18
f 20/20/20 19/19/19 18/18/18
f 21/21/21 19/19/19 20/20/20
f 22/22/22 21/21/21 20/20/20
f 25/25/25 24/24/24 23/23/23
f 23/23/23 24/24/24 26/26/26
f 27/27/27 24/24/24 25/25/25
f 26/26/26 24/24/24 28/28/28
f 29/29/29 24/24/24 27/27/27
f 28/28/28 24/24/24 30/30/30
f 31/31/31 24/24/24 29/29/29
f 30/30/30 24/24/24 32/32/32
f 33/33/33 24/24/24 31/31/31
f 32/32/32 24/24/24 33/33/33
